<svg xmlns="http://www.w3.org/2000/svg" viewBox="0 0 94.75 125.01"><defs><style>.cls-1{fill:#444;}</style></defs><g id="Layer_2" data-name="Layer 2"><g id="Some_icon" data-name="Some icon"><g id="Stickman"><circle class="cls-1" cx="47.26" cy="24.76" r="19.76"/><path class="cls-1" d="M62,24.76c-.27,8-6.51,14.77-14.76,14.76A14.9,14.9,0,0,1,32.5,24.76,14.88,14.88,0,0,1,46.58,10C55.09,9.6,61.74,16.49,62,24.76c.21,6.42,10.22,6.45,10,0C71.56,11.3,61.07,0,47.26,0A25,25,0,0,0,22.5,24.76,25,25,0,0,0,47.26,49.52c13.81,0,24.3-11.3,24.76-24.76C72.24,18.32,62.23,18.33,62,24.76Z"/><rect class="cls-1" x="5.17" y="66.28" width="84.51" height="53.73" rx="12"/><path class="cls-1" d="M77.68,115H33.46c-5.37,0-10.92.42-16.27,0-9.38-.73-7-12.89-7-19.39V82c0-3.3-.33-6.72,2.51-9.12,3.71-3.13,12.1-1.63,16.49-1.63,15.91,0,32.1-.92,48,0,9.89.57,7.52,12.47,7.52,19.39v14.54c0,4.76-1.21,9.48-7,9.79-6.4.35-6.44,10.35,0,10,7.59-.41,14.3-5,16.38-12.49,1-3.61.62-7.65.62-11.35v-16c0-3.72.36-7.72-.62-11.35-2-7.47-8.84-12.18-16.38-12.49-1.84-.08-3.7,0-5.54,0H41c-7.81,0-15.67-.27-23.48,0-5.73.19-11,2.57-14.33,7.4-2.74,4-3,8.38-3,13,0,8.72-.39,17.54,0,26.26.32,7.14,4.4,13.59,11.31,16,3,1,5.95,1,9,1H77.68C84.12,125,84.13,115,77.68,115Z"/></g></g></g></svg>