<svg xmlns="http://www.w3.org/2000/svg" viewBox="0 0 220.91 195.34"><defs><style>.cls-1{fill:#fff;}</style></defs><g id="Layer_2" data-name="Layer 2"><g id="Some_icon" data-name="Some icon"><g id="calendar"><path class="cls-1" d="M53.12,5.8V46.14c0,7.72,12,7.73,12,0V5.8c0-7.73-12-7.74-12,0Z"/><path class="cls-1" d="M151.42,5.8V46.14c0,7.72,12,7.73,12,0V5.8c0-7.73-12-7.74-12,0Z"/><path class="cls-1" d="M202.87,183.12H24.4c-5.5,0-12,.82-12.38-6.76-.46-8.43,0-17,0-25.45V59.52c0-7.06-.61-14.42,0-21.47C12.68,30.34,21.49,32,27,32H191c4.51,0,14.3-1.74,17.07,3,1.18,2,.83,4.7.83,6.95V175.07c0,4-1.22,7.79-6,8.05-7.68.41-7.73,12.41,0,12,10.19-.56,17.63-8,18-18.24.09-2.59,0-5.2,0-7.79V42.85a42.17,42.17,0,0,0-.39-8.41c-1.77-8.69-9.32-14.19-18-14.47-7-.23-14.08,0-21.09,0H87.71c-22.86,0-45.74-.3-68.6,0C6.76,20.13,0,29.28,0,40.88V166.15c0,10.49-.95,22.2,10.74,27.38,6.08,2.69,14.29,1.59,20.77,1.59H202.87C210.59,195.12,210.6,183.12,202.87,183.12Z"/><path class="cls-1" d="M6,73.09H214.87c6.43,0,6.44-10,0-10H6c-6.44,0-6.45,10,0,10Z"/><rect class="cls-1" x="81.99" y="88.06" width="15.8" height="15.8" rx="7.9"/><path class="cls-1" d="M89.9,102.36a6.39,6.39,0,0,1-4.15-11.27A6.4,6.4,0,0,1,96.22,97a6.48,6.48,0,0,1-6.32,5.39c-1.93,0-1.94,3,0,3A9.55,9.55,0,0,0,98.79,99,9.4,9.4,0,0,0,85,87.94a9.39,9.39,0,0,0,4.89,17.42A1.5,1.5,0,0,0,89.9,102.36Z"/><rect class="cls-1" x="127.19" y="88.06" width="15.8" height="15.8" rx="7.9"/><path class="cls-1" d="M135.09,102.36A6.39,6.39,0,1,1,141.42,97a6.46,6.46,0,0,1-6.33,5.39c-1.93,0-1.93,3,0,3A9.56,9.56,0,0,0,144,99a9.4,9.4,0,0,0-13.78-11,9.39,9.39,0,0,0,4.88,17.42A1.5,1.5,0,0,0,135.09,102.36Z"/><rect class="cls-1" x="36.8" y="120.63" width="15.8" height="15.8" rx="7.9"/><path class="cls-1" d="M44.7,134.93a6.39,6.39,0,0,1-4.15-11.27,6.4,6.4,0,0,1,7.25-.72,6.39,6.39,0,0,1-3.1,12c-1.93,0-1.94,3,0,3a9.55,9.55,0,0,0,8.89-6.37,9.4,9.4,0,0,0-13.78-11,9.39,9.39,0,0,0,4.89,17.42A1.5,1.5,0,0,0,44.7,134.93Z"/><rect class="cls-1" x="81.99" y="120.63" width="15.8" height="15.8" rx="7.9"/><path class="cls-1" d="M89.9,134.93a6.39,6.39,0,0,1-4.15-11.27,6.4,6.4,0,0,1,10.47,5.88,6.48,6.48,0,0,1-6.32,5.39c-1.93,0-1.94,3,0,3a9.55,9.55,0,0,0,8.89-6.37,9.4,9.4,0,0,0-13.78-11,9.39,9.39,0,0,0,4.89,17.42A1.5,1.5,0,0,0,89.9,134.93Z"/><rect class="cls-1" x="127.19" y="120.63" width="15.8" height="15.8" rx="7.9"/><path class="cls-1" d="M135.09,134.93a6.39,6.39,0,1,1,6.33-5.39,6.46,6.46,0,0,1-6.33,5.39c-1.93,0-1.93,3,0,3a9.56,9.56,0,0,0,8.9-6.37,9.4,9.4,0,0,0-13.78-11,9.39,9.39,0,0,0,4.88,17.42A1.5,1.5,0,0,0,135.09,134.93Z"/><rect class="cls-1" x="36.8" y="153.2" width="15.8" height="15.8" rx="7.9"/><path class="cls-1" d="M44.7,167.51a6.4,6.4,0,0,1-4.15-11.28,6.4,6.4,0,0,1,7.25-.72,6.4,6.4,0,0,1-3.1,12,1.5,1.5,0,0,0,0,3,9.57,9.57,0,0,0,8.89-6.38,9.4,9.4,0,0,0-13.78-11,9.4,9.4,0,0,0,4.89,17.43A1.5,1.5,0,0,0,44.7,167.51Z"/><rect class="cls-1" x="81.99" y="153.2" width="15.8" height="15.8" rx="7.9"/><path class="cls-1" d="M89.9,167.51a6.4,6.4,0,0,1-4.15-11.28,6.4,6.4,0,0,1,10.47,5.88,6.5,6.5,0,0,1-6.32,5.4,1.5,1.5,0,0,0,0,3,9.57,9.57,0,0,0,8.89-6.38,9.4,9.4,0,0,0-13.78-11,9.4,9.4,0,0,0,4.89,17.43A1.5,1.5,0,0,0,89.9,167.51Z"/><rect class="cls-1" x="127.19" y="153.2" width="15.8" height="15.8" rx="7.9"/><path class="cls-1" d="M135.09,167.51A6.4,6.4,0,0,1,131,156.23a6.4,6.4,0,0,1,7.25-.72,6.4,6.4,0,0,1-3.11,12,1.5,1.5,0,0,0,0,3,9.59,9.59,0,0,0,8.9-6.38,9.4,9.4,0,0,0-13.78-11,9.4,9.4,0,0,0,4.88,17.43A1.5,1.5,0,0,0,135.09,167.51Z"/><rect class="cls-1" x="171.85" y="88.06" width="15.8" height="15.8" rx="7.9"/><path class="cls-1" d="M179.75,102.36a6.39,6.39,0,0,1-4.14-11.27,6.4,6.4,0,0,1,7.25-.72,6.39,6.39,0,0,1-3.11,12c-1.93,0-1.93,3,0,3a9.56,9.56,0,0,0,8.9-6.37,9.4,9.4,0,1,0-8.9,6.37A1.5,1.5,0,0,0,179.75,102.36Z"/><rect class="cls-1" x="171.85" y="120.63" width="15.8" height="15.8" rx="7.9"/><path class="cls-1" d="M179.75,134.93a6.39,6.39,0,0,1-4.14-11.27,6.4,6.4,0,0,1,7.25-.72,6.39,6.39,0,0,1-3.11,12c-1.93,0-1.93,3,0,3a9.56,9.56,0,0,0,8.9-6.37,9.4,9.4,0,1,0-8.9,6.37A1.5,1.5,0,0,0,179.75,134.93Z"/><rect class="cls-1" x="171.85" y="153.2" width="15.8" height="15.8" rx="7.9"/><path class="cls-1" d="M179.75,167.51a6.4,6.4,0,0,1-4.14-11.28,6.4,6.4,0,0,1,7.25-.72,6.4,6.4,0,0,1-3.11,12,1.5,1.5,0,0,0,0,3,9.59,9.59,0,0,0,8.9-6.38,9.4,9.4,0,0,0-13.78-11,9.4,9.4,0,0,0,4.88,17.43A1.5,1.5,0,0,0,179.75,167.51Z"/></g></g></g></svg>