<svg xmlns="http://www.w3.org/2000/svg" viewBox="0 0 199.81 199.83"><defs><style>.cls-1{fill:#fff;}</style></defs><g id="Layer_2" data-name="Layer 2"><g id="Some_icon" data-name="Some icon"><g id="Earth_icon" data-name="Earth icon"><g id="Layer_17" data-name="Layer 17"><path class="cls-1" d="M88.79,8.59C88.19,16,88,23.42,88,30.86c0,5.68,0,11.27,1.93,16.7,2.08,5.91,5.71,10.6,8.94,15.86,2,3.3,2.83,9.17-3.2,8.37-3-.4-4.66-2.3-7-4a13.31,13.31,0,0,0-8.34-2.68A15.93,15.93,0,0,0,72.79,68c-2.14,1.31-4.16,3-6.68,1.7-2.07-1.08-3.5-3.84-4.8-5.69a47.94,47.94,0,0,0-5.72-7.21A20.9,20.9,0,0,0,44.35,51c-13.26-2.12-26.7,6.58-37,13.76-5.23,3.66-.24,12.33,5.05,8.64,8.05-5.62,21-15.39,31.75-12.24,9.9,2.92,11.35,19.49,24.23,19.06a17.26,17.26,0,0,0,8.49-3c2.77-1.7,4-2.7,6.81-.63,5.49,4,12.38,7.4,19.17,4a14.72,14.72,0,0,0,7.77-13.08c-.09-5.21-3.31-9.41-6.1-13.54C100.7,48.26,98.2,42.6,98.05,35.7a260.86,260.86,0,0,1,.74-27.11c.51-6.41-9.49-6.38-10,0Z"/><path class="cls-1" d="M153,25.05c-8,11.29-5.28,23.48,1.79,34.32,1.71,2.61,6.95,8.06,6.3,11.48-.33,1.73-2.47,2.54-3.83,3.42-2.39,1.53-4.79,3.15-6.37,5.58-1.91,3-1.45,5.44-2.27,8.61-.77,3-3.79,3.32-6.37,5.09-4.89,3.38-10.23,9.36-8.79,15.79,1.38,6.16,8.11,9.58,13.79,10.69,5.48,1.07,13.57-2.89,15.88,4.6,1.55,5-2.83,10.93-5.77,14.59a50,50,0,0,1-11.7,10.65c-2.44,1.57-11.79,7.19-14.1,5.42-1.8-1.38-.56-10.61-.36-13.42a17,17,0,0,0-1.49-9.32c-1.47-2.83-3.85-4.34-4.12-7.68-.21-2.56-.1-4.64-2-6.71-2.14-2.34-5.46-3.15-8.53-3.12-9.49.09-23.08,8.52-20,19.59.44,1.57,1.61,2.93,1.43,4.61-.17,1.51-1.54,3.16-2.41,4.31-1.93,2.54-4.36,4.75-6,7.54a17.44,17.44,0,0,0-2.12,9.58c.72,13.15,10.2,25.42,17.87,35.38,3.87,5,12.57,0,8.64-5.05-6.4-8.29-15.17-18.79-16.46-29.68-.36-3.09-.08-4.17,1.55-6.43,3.4-4.74,8.19-8.63,8.83-14.82.31-3-1.27-5.08-1.6-7.81-.29-2.36,1.83-4,3.72-5.15a13.74,13.74,0,0,1,5.21-2c.78-.12,1.54,0,2.3-.09-.18,0-.52-2-.5-.64a18.66,18.66,0,0,0,.46,4.77c.9,3.31,3.36,5.08,4.71,8,1.09,2.34.33,5.24.19,7.75-.28,5.15-.49,11.45,2.42,16,6.28,9.71,21.78,1.43,28.53-3.2,8.43-5.79,16.56-14.18,20.11-24,4.08-11.25-3.65-25.73-16.9-23.83-2.94.43-5.45.81-8.35-.34-4.13-1.63-3.76-3.4-.78-6.22,4.52-4.29,11.16-4.86,12.46-12,.64-3.48-.32-5.58,2.92-7.85,2.22-1.57,4.68-2.73,6.55-4.77,3.85-4.19,3.71-9.77,1.46-14.68-5.31-11.6-17.1-20.71-7.77-33.94,3.72-5.26-4.95-10.27-8.63-5Z"/><path class="cls-1" d="M7.13,83.76c8.94-.7,23.33-1.89,28.31,7.24,3.2,5.85,5.51,11.13,12,14,2.73,1.2,5.55,1,8.34,1.9,3.14,1,5.4,3.56,7,6.33,3.12,5.4,4.48,13.13,1.24,18.76-2.75,4.78-6.34,7.93-7.08,13.76-.85,6.62,1.94,11.14,3.89,17.16,2.32,7.16-2.73,13-7.89,17.3-4.95,4.12,2.16,11.16,7.08,7.07,9.09-7.57,14.14-18.35,9.36-29.81-2.11-5.06-4.16-9.95-.74-15,3-4.46,6-7.91,6.79-13.48,1.67-11-2.94-24.54-13.07-30.12-5.5-3-11.9-1.36-15.58-7.4-2.23-3.67-3.41-7.66-6.62-10.7-8.52-8.06-22.21-7.87-33.06-7-6.38.5-6.43,10.5,0,10Z"/><path class="cls-1" d="M189.9,99.93c-.27,37.43-23.86,72-59.35,84.73A91.12,91.12,0,0,1,30,156.88C6.14,128,3.29,85.76,22.46,53.71,41.81,21.36,80.62,4,117.65,11.59c41.77,8.58,71.94,45.83,72.25,88.34,0,6.37,10,6.39,9.91,0A101.19,101.19,0,0,0,134.43,6.1C95.34-8.52,49.5,3.8,23,36-3.72,68.29-7.7,115.05,13.9,151.15c21.51,35.95,64,54.73,105.05,46.94,46.66-8.86,80.52-51.05,80.86-98.16C199.86,93.55,190,93.55,189.9,99.93Z"/></g><path class="cls-1" d="M30,57.39A90.42,90.42,0,0,1,64.1,26.32a82.73,82.73,0,0,1,11.4-4.93c.53-.19,5.92-1.6,5.94-1.83q-2.64-3.48-2,.08v1.71a83.32,83.32,0,0,0,4.41,26A89.38,89.38,0,0,0,88.74,59c1.05,2,2.22,4,3.41,6,.5.77,1,1.55,1.45,2.35.11,1.22.5,1.42,1.17.61,1.44-.28-1.74-2.37-2.36-3a33.5,33.5,0,0,0-4.51-4.32c-3.24-2.31-7-3.5-11-2.42-3.47,1-5.9,4.32-9.53,2.37s-5.55-6.23-7.86-9.3c-4.92-6.54-11.65-10.92-20.05-9.14l5.78,9.94A248.21,248.21,0,0,1,83.69,25.23l-9-5.13c-1.15,15.84-7.17,42,12.87,48.55L89.19,57c-11.64.28-21.45-6.56-24.77-17.78l-5.73,7.52c5.69.57,11.66.08,15.62-4.55C78,37.88,77.87,31.64,74.89,27s-11.36-3.19-11.08,3l1,22.49c.35,7.62,12.24,7.66,11.89,0L75.71,30,64.63,33c2,3.1-4.3,2-5.94,1.8-3.87-.39-6.75,4.11-5.74,7.53A36.53,36.53,0,0,0,89.19,68.87c6.79-.17,8-9.61,1.58-11.68s-6-10.6-5.67-15.86c.39-7.09,1-14.16,1.53-21.23.34-4.64-5.26-7.23-8.95-5.14a265.2,265.2,0,0,0-40.83,28.7c-4.84,4.13.45,11.07,5.79,9.94,3.52-.75,6.31,3.24,8.09,5.68,2.38,3.25,4.49,6.71,7.6,9.33a19,19,0,0,0,9.39,4.48c4.19.62,6.91-.87,10.58-2.46s5.35,2.69,7.92,4.92a14,14,0,0,0,9.87,3.73c7.94-.37,11.49-8.4,9-15.3-1.22-3.37-3.57-6.31-5.27-9.44a69,69,0,0,1-5.09-12c-2.6-8.19-3.2-16.12-3.4-24.64-.45-19.12-25.67-6-34.59-1.13a102.32,102.32,0,0,0-37,34.6c-4.16,6.45,6.12,12.42,10.26,6Z"/><path class="cls-1" d="M7,86c3.39,33.84,9.69,75.83,45.16,91,3.1,1.33,6.17.82,8.14-2.13,5.68-8.52,6-26.31-5.87-30.24a10.41,10.41,0,0,0-12.91,6.8c-1.67,5.78,2.16,10.69,7.28,12.66,2.2.85,5.74-.52,6.71-2.73a123.63,123.63,0,0,0,8.78-27.65c1.39-7.58,3.36-16.9.78-24.44a14.83,14.83,0,0,0-7.36-8.42c-3.3-1.71-7-1.93-9.9-4.46C42.44,91.65,40.63,84,34.91,79.63c-6-4.64-14.67-3.19-17.18,4.5s-.12,17.53,1.3,25.11a123.17,123.17,0,0,0,20.54,48.18c3.3,4.67,11,3.22,11.08-3L51.34,117a18.48,18.48,0,0,0,.07-3.93q1.05-3.64-3.21-1.81c-2.51-1-3.57-.64-3.19.94-.78,2,.41,6.14.51,8.39.28,6.35.31,12.71.14,19.06l10.15-4.2c-3.08-2.56-3.87-6.05-5-9.75-1.27-4.15-2.72-8.22-4.4-12.23a123,123,0,0,0-13-23.58c-3.86-5.47-12.31-2.21-10.87,4.58l9.23,43.59c1.58,7.48,13,4.31,11.46-3.16L34,91.32,23.11,95.9a112.63,112.63,0,0,1,13.74,25.52c2.84,7.62,3.95,17,10.55,22.44,3.9,3.24,10,1.24,10.15-4.2a209.73,209.73,0,0,0-.74-28.58c-.73-6.56-6.46-13.77-13.49-8.68-6,4.31-3.9,16.22-4,22.49l-.54,29.53,11.08-3a114.54,114.54,0,0,1-17-35.35,108.29,108.29,0,0,1-3.63-19.39c-.14-1.64.48-7-.34-8.19-1.34.07-1.58.4-.7,1A7.19,7.19,0,0,1,29.45,91c.84,1.13,1.57,2.39,2.32,3.58,2.78,4.4,5.58,8.86,9.8,12,3.88,2.93,11.87,3.06,12.62,8.41.85,6.06-.85,13.23-2.14,19.12a110.55,110.55,0,0,1-6.86,21.21l6.72-2.74q1.92.82-.21,2.13-2,1.2-.38,2.64c.18,1.3.87,2.43,1,3.8A11.82,11.82,0,0,1,50,168.86l8.13-2.14C26.7,153.27,21.84,115.88,18.85,86,18.09,78.42,6.19,78.34,7,86Z"/><path class="cls-1" d="M120.22,185.17c-7.57-9.21-15-19-12.91-31.63a55.54,55.54,0,0,1,2.3-8.59c.48-1.4,3.53-6.88,3.09-8.13-3.43-2.21-4.8-2.5-4.13-.86a6.32,6.32,0,0,1,.37,1.42c-.15,1.38.63,3.28.89,4.63l2,10.2c1.36,7.06,11,4.59,11.68-1.58l1.26-12.47c.48-4.68-5.34-7.14-8.95-5.13l-4.09,2.28,9,5.14L119,128c-.39-3-2-5.4-5.15-5.84-2.63-.35-6.09,1.34-6.53,4.26a95.29,95.29,0,0,0,4.79,48L123,169.81l-10.34-13.53c-3.68-4.81-13.42-2.37-10.87,4.58,2.87,7.83,5.13,16.4,8.9,23.84,3.18,6.25,10.29,10,16.76,5.92a6.16,6.16,0,0,0,2.73-6.72l-6.08-28-10.87,4.58,12.88,27.32c2.51,5.33,11.4,2.73,11.07-3l-1.21-21.22-11.68,1.58a41.48,41.48,0,0,0,15.66,20.68c3,2.08,8.11.05,8.74-3.56,1.49-8.55,0-17-5.16-24l-8.13,8.13,17.39,13.39c3,2.29,8-.12,8.74-3.56a45.66,45.66,0,0,0-1.94-26.42c-1.64-4.18-8.53-6.59-10.87-1.42l-6.93,15.28c-2.18,4.82,2.75,11.93,8.14,8.14A89.66,89.66,0,0,0,184,125.43l-11.47-3.16a118.37,118.37,0,0,1-17.06,40.18l10.27,6,13-28c3.91-8.45,8.27-16.91,10.74-25.92,4.9-17.89,1.13-36.83-5.67-53.67A218.52,218.52,0,0,0,172,35.55C168.27,29,160.15,26,155,33c-5.62,7.61,1.2,14.62,4.94,21.09,4.11,7.11,6.2,15.17,7.64,23.21,3.85,21.43,5.33,43.48,7.81,65.11.85,7.48,12.65,7.67,11.89,0-2.08-21-18.11-39.31-39.29-42.53l1.42,10.86a45.43,45.43,0,0,0,24.07-31.59l-11.68-1.58.56,12.84.25,5.93.13,3q-.61,4.2,5.09,4.66l-10.14,4.21,11.65,10c5.77,5,14.22-3.4,8.41-8.4l-11.66-10c-4.11-3.54-9.6-1-10.15,4.2-1,9.84,12.12,12,16.83,4.53,2.47-3.92,1.88-8.75,1.69-13.15l-.77-17.78C173.4,71.18,163.36,69.1,162,76a34.18,34.18,0,0,1-18.6,24.49c-4.3,2.16-3.64,10.09,1.42,10.86,15.61,2.38,29,15,30.56,31.07h11.89q-2.84-24.68-5.66-49.35c-1.59-13.86-3.23-27.88-9.18-40.67A56.82,56.82,0,0,0,167.55,44c-.63-.91-1.81-3.53-2.7-4l-1.89.23c-1.78-.38-2.3-.11-1.57.82-.07.64,1.24,2.41,1.55,3,3.58,7.11,7.17,14.26,10.07,21.69,5.62,14.41,9.17,30.38,5,45.66-2.28,8.35-6.34,16.15-10,24l-12.54,27.13c-3.18,6.89,6,12.47,10.27,6a127.78,127.78,0,0,0,18.26-43c1.64-7.47-9.14-10.48-11.47-3.16a76.28,76.28,0,0,1-28.67,39.27l8.13,8.14L159,154.39,148.09,153a34.35,34.35,0,0,1,1.94,20.1l8.74-3.55-17.4-13.38c-4.66-3.59-11.56,3.47-8.14,8.13,3.23,4.41,4.92,9.4,4,14.89l8.73-3.55A27.6,27.6,0,0,1,135.73,162c-2.09-6-12.09-5.51-11.68,1.58l1.21,21.22,11.08-3-12.87-27.32c-3-6.36-12.23-1.7-10.87,4.58l6.08,28,2.73-6.72c.79-.49-7.5-20.78-8.18-22.65l-10.87,4.58,10.34,13.54c3.67,4.8,13.48,2.35,10.87-4.59a83.24,83.24,0,0,1-4.79-41.63L107.1,128l1.65,12.43c.59,4.36,4.63,7.54,9,5.13l4.1-2.28-9-5.14-1.27,12.47L123.26,149c-1.35-7-1.21-20.66-9.5-23.58C104,122,100.37,135.2,98.15,141.79c-3,9-4.4,18.61-1.42,27.76s9,16.69,15.08,24c4.86,5.92,13.23-2.54,8.41-8.4Z"/></g></g></g></svg>