<svg xmlns="http://www.w3.org/2000/svg" viewBox="0 0 151.14 156.47"><defs><style>.cls-1{fill:#fff;}</style></defs><g id="Layer_2" data-name="Layer 2"><g id="Some_icon" data-name="Some icon"><g id="Home"><path class="cls-1" d="M121.28,151c-45.44.6-78.66.48-86.64.24-2.73-.08-8.62-.35-12.09-4.42a10.67,10.67,0,0,1-1.87-3.24q.09-26.89.17-53.78l-16-.26L76.2,5l70.1,84.28-15.15.18q-.35,26.55-.68,53.1a16.77,16.77,0,0,1-2.05,3.24A17.39,17.39,0,0,1,121.28,151Z"/><path class="cls-1" d="M121.28,146c-25.44.33-50.9.57-76.34.39-5.4,0-17.53,1.64-19.25-4.8-.93-3.47,0-8.3,0-12q0-7,.05-13.95,0-12.95.08-25.89a5.07,5.07,0,0,0-5-5l-16-.26,3.53,8.54L79.74,8.53H72.67l70.09,84.28,3.54-8.54-15.15.18a5.07,5.07,0,0,0-5,5q-.23,16.71-.43,33.43c-.07,5.25-.22,10.49-.2,15.74,0,4.27-3,6.44-6.76,8-5.91,2.52-.82,11.13,5,8.64a22.3,22.3,0,0,0,9.77-8.12c3.25-4.89,2-11.8,2.06-17.42q.26-20.16.52-40.32l-5,5,15.15-.18c4.61,0,6.22-5.3,3.53-8.53L79.74,1.46a5,5,0,0,0-7.07,0Q37,43.73,1.31,86c-2.73,3.24-1,8.47,3.54,8.54l16,.26-5-5q0,14.94-.1,29.88,0,7,0,13.94c0,3.86-.78,8.53.53,12.21,3.59,10.09,15.13,10.41,24.09,10.51,27,.33,54,0,81-.34C127.71,155.9,127.73,145.9,121.28,146Z"/></g></g></g></svg>