<svg xmlns="http://www.w3.org/2000/svg" viewBox="0 0 129.17 138.64"><defs><style>.cls-1{fill:#444;}</style></defs><g id="Layer_2" data-name="Layer 2"><g id="Some_icon" data-name="Some icon"><g id="Stickman"><path class="cls-1" d="M110.85,60.46c-.26,21-13.29,40.4-33.28,47.49A51.1,51.1,0,0,1,21.19,92.34,50.91,50.91,0,0,1,17.1,34.42C27.85,16.55,49.35,6.78,69.89,10.85a51.11,51.11,0,0,1,41,49.61c.08,6.43,10.08,6.44,10,0A61.33,61.33,0,0,0,81.46,3.77C57.75-5.27,29.71,2.38,13.71,22S-4.63,69.77,8.47,91.54a61.19,61.19,0,0,0,63.42,28.29c28.34-5.27,48.61-30.91,49-59.37C120.93,54,110.93,54,110.85,60.46Z"/><path class="cls-1" d="M93.81,105.35l27,31.64c4.19,4.9,11.23-2.2,7.07-7.07l-27-31.64c-4.19-4.9-11.23,2.2-7.08,7.07Z"/></g></g></g></svg>